<svg xmlns="http://www.w3.org/2000/svg" width="1920" height="6705"><defs><clipPath id="a"><path d="M0 0h1920v6705H0z"/></clipPath></defs><g clip-path="url(#a)" data-name="Head – 8"><path fill="#022836" d="M0 0h1920v6705H0z"/><path fill="#033f40" d="M1221 4l50 87.5-50 87.5h-100l-50-87.5L1121 4z" data-name="Polygon 5"/><path fill="#093434" d="M1118 3l-50 87.5H968L918 3z" data-name="Path 25"/><path fill="#0b5556" d="M1068 93l50 87.5-50 87.5H968l-50-87.5L968 93z" data-name="Polygon 30"/><path fill="#004d4e" d="M1221 182l50 87.5-50 87.5h-100l-50-87.5 50-87.5z" data-name="Polygon 7"/><path fill="#135657" d="M916 182l50 87.5-50 87.5H816l-50-87.5 50-87.5z" data-name="Polygon 8"/><path fill="#066e70" d="M1214.25 497l11.75 19-11.75 19h-23.5L1179 516l11.75-19z" data-name="Polygon 9"/><path fill="#066e70" d="M1068 271l50 87.5-50 87.5H968l-50-87.5 50-87.5z" data-name="Polygon 35"/><path fill="#277677" d="M916 360l50 87.5-50 87.5H816l-50-87.5 50-87.5z" data-name="Polygon 10"/><path fill="#50a3a4" d="M763 271l50 87.5-50 87.5H663l-50-87.5 50-87.5z" data-name="Polygon 11"/><path fill="#55e5e6" d="M610 538l50 87.5-50 87.5H510l-50-87.5 50-87.5z" data-name="Polygon 12"/><path fill="#5bd5d6" d="M610 360l50 87.5-50 87.5H510l-50-87.5 50-87.5z" data-name="Polygon 14"/><path fill="#5bd5d6" d="M221.5 802l5.5 9.5-5.5 9.5h-11l-5.5-9.5 5.5-9.5z" data-name="Polygon 27"/><path fill="#40bbbc" d="M763 449l50 87.5-50 87.5H663l-50-87.5 50-87.5z" data-name="Polygon 13"/><path fill="#40bbbc" d="M662.5 802l17.5 31-17.5 31h-35L610 833l17.5-31z" data-name="Polygon 29"/><path fill="#093c3d" d="M916 4l50 87.5-50 87.5H816l-50-87.5L816 4z" data-name="Polygon 18"/><path fill="#7ed9da" d="M457 449l50 87.5-50 87.5H357l-50-87.5 50-87.5z" data-name="Polygon 20"/><path fill="#7ed9da" d="M457 627l50 87.5-50 87.5H357l-50-87.5 50-87.5z" data-name="Polygon 21"/><path fill="#7ed9da" d="M485.5 864l8.5 15-8.5 15h-17l-8.5-15 8.5-15z" data-name="Polygon 28"/><path fill="#7df2f3" d="M305 538l50 87.5-50 87.5H205l-50-87.5 50-87.5z" data-name="Polygon 22"/><path fill="#7df2f3" d="M305 538l50 87.5-50 87.5H205l-50-87.5 50-87.5z" data-name="Polygon 34"/><path fill="#a2feff" d="M153 271l50 87.5-50 87.5H53L3 358.5 53 271z" data-name="Polygon 23"/><path fill="#a0f0f0" d="M1 360l50 87.5L1 535z" data-name="Path 99"/><path fill="#d1fefe" d="M1 182l50 87.5L1 357z" data-name="Path 98"/><path fill="#a0f0f0" d="M153 449l50 87.5-50 87.5H53L3 536.5 53 449z" data-name="Polygon 31"/><path fill="#98fafb" d="M305 360l50 87.5-50 87.5H205l-50-87.5 50-87.5z" data-name="Polygon 24"/><path fill="#3da8aa" d="M916 538l50 87.5-50 87.5H816l-50-87.5 50-87.5z" data-name="Polygon 17"/><path fill="#3da8aa" d="M990.75 773l8.25 14.5-8.25 14.5h-16.5L966 787.5l8.25-14.5z" data-name="Polygon 36"/><path fill="#5bd5d6" d="M151.75 952l3.25 5.5-3.25 5.5h-6.5l-3.25-5.5 3.25-5.5z" data-name="Polygon 33"/><path fill="#7ed9da" d="M457 449l50 87.5-50 87.5H357l-50-87.5 50-87.5z" data-name="Polygon 38"/><path fill="#7ed9da" d="M1591.008 673l5.612 9.551-5.612 9.549h-11.225l-5.612-9.549 5.612-9.551z" data-name="Path 42"/><path fill="#7ed9da" d="M1285.5 1103l4.5 8.5-4.5 8.5h-9l-4.5-8.5 4.5-8.5z" data-name="Polygon 52"/><path fill="#7ed9da" d="M985.5 938l8.5 15-8.5 15h-17l-8.5-15 8.5-15z" data-name="Polygon 53"/><path fill="#7ed9da" d="M1532.65 1292.003l3.592 6.112-3.592 6.112h-7.183l-3.592-6.112 3.592-6.112z" data-name="Path 52"/><path fill="#7ed9da" d="M309.25 1080l4.75 9-4.75 9h-9.5l-4.75-9 4.75-9z" data-name="Polygon 54"/><path fill="#7ed9da" d="M572.25 1154l6.75 12.5-6.75 12.5h-13.5l-6.75-12.5 6.75-12.5z" data-name="Polygon 55"/><path fill="#fff" d="M1620.75 876l29.25 51-29.25 51h-58.5L1533 927l29.25-51z" data-name="Polygon 92" opacity=".26"/><path fill="#fff" d="M239.5 1241l16.5 28.5-16.5 28.5h-33l-16.5-28.5 16.5-28.5z" data-name="Polygon 93" opacity=".26"/><path fill="#fff" d="M847.75 1005l27.25 47-27.25 47h-54.5L766 1052l27.25-47z" data-name="Polygon 95" opacity=".26"/><path fill="#7ed9da" d="M1614.65 2493.003l3.592 6.112-3.592 6.112h-7.183l-3.592-6.112 3.592-6.112z" data-name="Path 57"/><path fill="#7ed9da" d="M1310.65 1964.003l3.592 6.112-3.592 6.112h-7.183l-3.592-6.112 3.592-6.112z" data-name="Path 58"/><path fill="#7ed9da" d="M604.65 2392.003l3.592 6.112-3.592 6.112h-7.183l-3.592-6.112 3.592-6.112z" data-name="Path 59"/><path fill="#7ed9da" d="M519.65 1979.003l3.592 6.112-3.592 6.112h-7.183l-3.592-6.112 3.592-6.112z" data-name="Path 60"/><path fill="#fff" d="M1736.75 2894l86.25 146.5-86.25 146.5h-172.5L1478 3040.5l86.25-146.5z" data-name="Polygon 100" opacity=".03"/><path fill="#7ed9da" d="M921.65 1461.003l3.592 6.112-3.592 6.112h-7.183l-3.592-6.112 3.592-6.112z" data-name="Path 61"/><path fill="#7ed9da" d="M1440.65 2833.003l3.592 6.112-3.592 6.112h-7.183l-3.592-6.112 3.592-6.112z" data-name="Path 62"/><path fill="#7ed9da" d="M847.65 2974.003l3.592 6.112-3.592 6.112h-7.183l-3.592-6.112 3.592-6.112z" data-name="Path 63"/><path fill="#fff" d="M1541.5 1829l28.5 49-28.5 49h-57l-28.5-49 28.5-49z" data-name="Polygon 97" opacity=".03"/><path fill="#fff" d="M1125.25 1594l11.75 20-11.75 20h-23.5l-11.75-20 11.75-20z" data-name="Polygon 98" opacity=".03"/><path fill="#fff" d="M604.75 2123L675 2250.5 604.75 2378h-140.5L394 2250.5l70.25-127.5z" data-name="Polygon 99" opacity=".03"/><path fill="#fff" d="M732.5 3356l28.5 49-28.5 49h-57l-28.5-49 28.5-49z" data-name="Polygon 102" opacity=".03"/><path fill="#7ed9da" d="M1142.65 3906.003l3.592 6.112-3.592 6.112h-7.183l-3.592-6.112 3.592-6.112z" data-name="Path 64"/><path fill="#7ed9da" d="M429.65 3393.003l3.592 6.112-3.592 6.112h-7.183l-3.592-6.112 3.592-6.112z" data-name="Path 65"/><path fill="#7ed9da" d="M1593.65 3503.003l3.592 6.112-3.592 6.112h-7.183l-3.592-6.112 3.592-6.112z" data-name="Path 66"/><path fill="#fff" d="M1417.25 3344l17.75 30.5-17.75 30.5h-35.5l-17.75-30.5 17.75-30.5z" data-name="Polygon 103" opacity=".03"/><path fill="#fff" d="M233.75 3503L325 3660l-91.25 157H51.25L.312 3729.359l1.934-139.127L51.25 3503z" data-name="Path 100" opacity=".03"/><path fill="#fff" d="M1587.25 3883l29.75 51-29.75 51h-59.5l-29.75-51 29.75-51z" data-name="Polygon 105" opacity=".03"/><path fill="#fff" d="M901.5 4993l58.5 100-58.5 100h-117L726 5093l58.5-100z" data-name="Polygon 106" opacity=".03"/><path fill="#fff" d="M1631.75 4593l19.25 33-19.25 33h-38.5l-19.25-33 19.25-33z" data-name="Polygon 107" opacity=".03"/><path fill="#fff" d="M478.75 4163l19.25 33-19.25 33h-38.5L421 4196l19.25-33z" data-name="Polygon 108" opacity=".03"/><path fill="#fff" d="M1291 5273l12 20.5-12 20.5h-24l-12-20.5 12-20.5z" data-name="Polygon 109" opacity=".03"/><path fill="#fff" d="M304.75 5441l38.25 65.5-38.25 65.5h-76.5L190 5506.5l38.25-65.5z" data-name="Polygon 110" opacity=".03"/><path fill="#7ed9da" d="M963.65 5225.003l3.592 6.112-3.592 6.112h-7.183l-3.592-6.112 3.592-6.112z" data-name="Path 67"/><path fill="#7ed9da" d="M324.65 5213.003l3.592 6.112-3.592 6.112h-7.183l-3.592-6.112 3.592-6.112z" data-name="Path 68"/><path fill="#7ed9da" d="M1289.65 5145.003l3.592 6.112-3.592 6.112h-7.183l-3.592-6.112 3.592-6.112z" data-name="Path 69"/><path fill="#7ed9da" d="M274.65 4554.003l3.592 6.112-3.592 6.112h-7.183l-3.592-6.112 3.592-6.112z" data-name="Path 70"/><path fill="#7ed9da" d="M1751.65 4438.003l3.592 6.112-3.592 6.112h-7.183l-3.592-6.112 3.592-6.112z" data-name="Path 71"/><path fill="#7ed9da" d="M283.65 4092.003l3.592 6.112-3.592 6.112h-7.183l-3.592-6.112 3.592-6.112z" data-name="Path 72"/><path fill="#fff" d="M779 4078l9 15.5-9 15.5h-18l-9-15.5 9-15.5z" data-name="Polygon 111" opacity=".03"/><path fill="#fff" d="M987 4026l9 15.5-9 15.5h-18l-9-15.5 9-15.5z" data-name="Polygon 112" opacity=".17"/><path fill="#fff" d="M1051.25 5432l13.75 23.5-13.75 23.5h-27.5l-13.75-23.5 13.75-23.5z" data-name="Polygon 113" opacity=".03"/><text fill="#7ed9da" font-family="AmsiPro-Black, AmsiPro ☞" font-size="32" font-weight="800" transform="translate(190 5869)"/><path fill="#3b9495" d="M1733 6334l50 87.5-50 87.5h-100l-50-87.5 50-87.5z" data-name="Polygon 114" opacity=".49"/><path fill="#52b3b4" d="M960 6244l50 87.5-50 87.5H860l-50-87.5 50-87.5z" data-name="Polygon 115"/><path fill="#6aeeef" d="M1115 6154l50 87.5-50 87.5h-100l-50-87.5 50-87.5z" data-name="Polygon 116"/><path fill="#7df2f3" d="M960 6064l50 87.5-50 87.5H860l-50-87.5 50-87.5z" data-name="Polygon 117"/><path fill="#3b9495" d="M1269 6244l50 87.5-50 87.5h-100l-50-87.5 50-87.5z" data-name="Polygon 118"/><path fill="#40cecf" d="M1424 6154l50 87.5-50 87.5h-100l-50-87.5 50-87.5z" data-name="Polygon 119"/><path fill="#62e2e3" d="M1269 6064l50 87.5-50 87.5h-100l-50-87.5 50-87.5z" data-name="Polygon 120" opacity=".78"/><path fill="#125c5d" d="M497 6334l50 87.5-50 87.5H397l-50-87.5 50-87.5z" data-name="Polygon 121"/><path fill="#3b9495" d="M651 6424l50 87.5-50 87.5H551l-50-87.5 50-87.5z" data-name="Polygon 122"/><path fill="#54e8e9" d="M806 6334l50 87.5-50 87.5H706l-50-87.5 50-87.5z" data-name="Polygon 123"/><path fill="#2dcecf" d="M651 6244l50 87.5-50 87.5H551l-50-87.5 50-87.5z" data-name="Polygon 124"/><path fill="#7df2f3" d="M188 6154l50 87.5-50 87.5H88l-50-87.5 50-87.5z" data-name="Polygon 125"/><path fill="#23c1c2" d="M342 6244l50 87.5-50 87.5H242l-50-87.5 50-87.5z" data-name="Polygon 126"/><path fill="#7df2f3" d="M497 6154l50 87.5-50 87.5H397l-50-87.5 50-87.5z" data-name="Polygon 127"/><path fill="#7bf0f0" d="M342 6064l50 87.5-50 87.5H242l-50-87.5 50-87.5z" data-name="Polygon 128"/><path fill="#7df2f3" d="M33 6424l50 87.5-50 87.5H2.107L1.2 6424z" data-name="Path 104"/><path fill="#7df2f3" d="M188 6334l50 87.5-50 87.5H88l-50-87.5 50-87.5z" data-name="Polygon 130"/><path fill="#7df2f3" d="M1733 5974l50 87.5-50 87.5h-100l-50-87.5 50-87.5z" data-name="Polygon 132"/><path fill="#6aeeef" d="M1887 6064l32.436 56.763-.23 61.876L1887 6239h-100l-50-87.5 50-87.5z" data-name="Path 103"/><path fill="#8bddde" d="M1887 5884l32.436 56.763.03 61.422L1887 6059h-100l-50-87.5 50-87.5z" data-name="Path 102"/><path fill="#40cecf" d="M1578 6244l50 87.5-50 87.5h-100l-50-87.5 50-87.5z" data-name="Polygon 135"/><path fill="#6aeeef" d="M1733 6154l50 87.5-50 87.5h-100l-50-87.5 50-87.5z" data-name="Polygon 136"/><path fill="#7df2f3" d="M1578 6064l50 87.5-50 87.5h-100l-50-87.5 50-87.5z" data-name="Polygon 137"/><path fill="#125c5d" d="M960 6424l50 87.5-50 87.5H860l-50-87.5 50-87.5z" data-name="Polygon 138"/><path fill="#3b9495" d="M1115 6334l50 87.5-50 87.5h-100l-50-87.5 50-87.5z" data-name="Polygon 139"/><path fill="#fff" d="M666.75 5969l27.25 47-27.25 47h-54.5L585 6016l27.25-47z" data-name="Polygon 140" opacity=".26"/><path fill="#fff" d="M821.5 5929l11.5 20-11.5 20h-23l-11.5-20 11.5-20z" data-name="Polygon 141" opacity=".15"/><path fill="#fff" d="M686 5371l12 20.5-12 20.5h-24l-12-20.5 12-20.5z" data-name="Polygon 142" opacity=".09"/><path fill="#fff" d="M1556.25 5693l43.75 74.5-43.75 74.5h-87.5l-43.75-74.5 43.75-74.5z" data-name="Polygon 143" opacity=".09"/><path fill="#7ed9da" d="M1142.65 5776.003l3.592 6.112-3.592 6.112h-7.183l-3.592-6.112 3.592-6.112z" data-name="Path 73"/><path fill="#8bddde" d="M1919.22 6112.636L1890 6061.5l29.775-52.106z" data-name="Path 101"/><path fill="#7df2f3" d="M32 6244l50 87.5-50 87.5H1.107L.2 6244z" data-name="Path 105"/></g></svg>