<svg id="logo" xmlns="http://www.w3.org/2000/svg" width="184.077" height="50" viewBox="0 0 184.077 50">
  <path id="Path_8" data-name="Path 8" d="M99.536,23.278h12.121V57.684H99.536Z" transform="translate(-32.858 -7.684)" fill="#fff"/>
  <path id="Path_9" data-name="Path 9" d="M168.754,57.684,134.347,23.277h-14.4L137.264,40.59h-.218L119.952,57.684h14.395l10.005-10.005,10.006,10.005Z" transform="translate(-39.597 -7.684)" fill="#fff"/>
  <path id="Path_10" data-name="Path 10" d="M111.532,12.563V0H99.442Z" transform="translate(-32.827)" fill="#7ed9da"/>
  <g id="Group_1" data-name="Group 1" transform="translate(0 6.282)">
    <path id="Path_11" data-name="Path 11" d="M255.6,23.278l-6.089,6.089V23.278H238.672V57.684h10.841V34.119h13.352V23.278Z" transform="translate(-78.788 -13.966)" fill="#fff"/>
    <path id="Path_12" data-name="Path 12" d="M0,21.94V53.1H27.967V43.5H12.627V9.377Z" transform="translate(0 -9.377)" fill="#fff"/>
    <path id="Path_13" data-name="Path 13" d="M55.965,34.118H68.472V48.039H55.965Zm0-10.84L45.124,34.118V57.684h18.6l4.744-4.743v4.743h10.84V23.278Z" transform="translate(-14.896 -13.966)" fill="#fff"/>
  </g>
  <path id="Path_14" data-name="Path 14" d="M166.035,38.833,181.59,23.278h-14.4l-8.357,8.357Z" transform="translate(-52.434 -7.684)" fill="#7ed9da"/>
  <path id="Path_15" data-name="Path 15" d="M193.076,23.278l-9.645,9.645V48.039l9.645,9.645H217.8V48.039H194.272V32.923h12.617V48.039L217.8,35.453V23.278Z" transform="translate(-60.552 -7.684)" fill="#fff"/>
</svg>
