<svg xmlns="http://www.w3.org/2000/svg" xmlns:xlink="http://www.w3.org/1999/xlink" width="375" height="4720" viewBox="0 0 375 4720">
  <defs>
    <clipPath id="clip-iPhone_X_XS_11_Pro_7">
      <rect width="375" height="4720"/>
    </clipPath>
  </defs>
  <g id="iPhone_X_XS_11_Pro_7" data-name="iPhone X/XS/11 Pro – 7" clip-path="url(#clip-iPhone_X_XS_11_Pro_7)">
    <rect width="375" height="4720" fill="#022836"/>
    <path id="Polygon_39" data-name="Polygon 39" d="M60,0,80,35,60,70H20L0,35,20,0Z" transform="translate(102 698)" fill="#62b7b8"/>
    <path id="Polygon_40" data-name="Polygon 40" d="M60,0,80,35,60,70H20L0,35,20,0Z" transform="translate(40 734)" fill="#358a8b"/>
    <path id="Polygon_41" data-name="Polygon 41" d="M60,0,80,35,60,70H20L0,35,20,0Z" transform="translate(40 662)" fill="#7ed9da"/>
    <path id="Path_106" data-name="Path 106" d="M60,0,80,35,60,70H22.02l.025-70Z" transform="translate(-22 698)" fill="#2da2a4"/>
    <path id="Path_107" data-name="Path 107" d="M60,0,80,35,60,70l-38,.013L22.02,0Z" transform="translate(-22 770)" fill="#257071"/>
    <path id="Polygon_45" data-name="Polygon 45" d="M60,0,80,35,60,70H20L0,35,20,0Z" transform="translate(102 626)" fill="#96dbdc"/>
    <path id="Path_44" data-name="Path 44" d="M7.941,0l2.647,4.5-2.647,4.5H2.647L0,4.5,2.647,0Z" transform="translate(64.171 492)" fill="#7ed9da"/>
    <path id="Path_27" data-name="Path 27" d="M60,0,80,35,60,70H20L0,35,20,0Z" transform="translate(165 662)" fill="#7ed9da"/>
    <path id="Polygon_48" data-name="Polygon 48" d="M60,0,80,35,60,70H20L0,35,20,0Z" transform="translate(289 734)" fill="#42999a"/>
    <path id="Polygon_49" data-name="Polygon 49" d="M60,0,80,35,60,70H20L0,35,20,0Z" transform="translate(227 698)" fill="#70b7b8"/>
    <path id="Path_26" data-name="Path 26" d="M60,0,80,35,60,70H20L0,35,20,0Z" transform="translate(165 734)" fill="#4cb3b4"/>
    <path id="Path_28" data-name="Path 28" d="M60,0,80,35,60,70H20L0,35,20,0Z" transform="translate(102 770)" fill="#309091"/>
    <path id="Path_31" data-name="Path 31" d="M60,0,80,35,60,70H20L0,35,20,0Z" transform="translate(227 770)" fill="#216d6e"/>
    <path id="Path_33" data-name="Path 33" d="M22.988,70H20L0,35,20,0h2.949Z" transform="translate(352 770)" fill="#216d6e"/>
    <path id="Path_108" data-name="Path 108" d="M22.947,70H20L0,35,20,0h2.984Z" transform="translate(352 698)" fill="#58b3b4"/>
    <path id="Polygon_51" data-name="Polygon 51" d="M60,0,80,35,60,70H20L0,35,20,0Z" transform="translate(289 662)" fill="#7ed9da"/>
    <path id="Path_34" data-name="Path 34" d="M9,0l3,5.25L9,10.5H3L0,5.25,3,0Z" transform="translate(180 532)" fill="#7ed9da"/>
    <path id="Path_35" data-name="Path 35" d="M16.5,0,22,9.625,16.5,19.25H5.5L0,9.625,5.5,0Z" transform="translate(364 593.25)" fill="#7ed9da"/>
    <path id="Path_36" data-name="Path 36" d="M14.25,0,19,8.313l-4.75,8.313H4.75L0,8.312,4.75,0Z" transform="translate(206 602.875)" fill="#7ed9da"/>
    <path id="Path_37" data-name="Path 37" d="M18,0l6,10.5L18,21H6L0,10.5,6,0Z" transform="translate(80 578.5)" fill="#7ed9da"/>
    <path id="Path_38" data-name="Path 38" d="M16.5,0,22,9.625,16.5,19.25H5.5L0,9.625,5.5,0Z" transform="translate(270 559.25)" fill="#7ed9da"/>
    <path id="Path_39" data-name="Path 39" d="M16.5,0,22,9.625,16.5,19.25H5.5L0,9.625,5.5,0Z" transform="translate(-11 648.25)" fill="#7ed9da"/>
    <path id="Path_29" data-name="Path 29" d="M60,0,80,35,60,70H20L0,35,20,0Z" transform="translate(165 806)" fill="#0c4243"/>
    <path id="Path_30" data-name="Path 30" d="M60,0,80,35,60,70H20L0,35,20,0Z" transform="translate(40 806)" fill="#25494a"/>
    <path id="Path_32" data-name="Path 32" d="M60,0,80,35,60,70H20L0,35,20,0Z" transform="translate(289 807)" fill="#0c4243"/>
    <g id="Group_6" data-name="Group 6" transform="translate(20.5 2300)">
      <path id="Path_111" data-name="Path 111" d="M59.5,0,79.066,35,59.5,70H37.248V0Z" transform="translate(-57.066 2210)" fill="#7ed9da" opacity="0.33"/>
      <path id="Polygon_61" data-name="Polygon 61" d="M60,0,80,35,60,70H20L0,35,20,0Z" transform="translate(3 2174)" fill="#7ed9da" opacity="0.39"/>
      <path id="Polygon_62" data-name="Polygon 62" d="M60,0,80,35,60,70H20L0,35,20,0Z" transform="translate(65 2138)" fill="#7ed9da" opacity="0.65"/>
      <path id="Polygon_63" data-name="Polygon 63" d="M60,0,80,35,60,70H20L0,35,20,0Z" transform="translate(127 2102)" fill="#7ed9da" opacity="0.61"/>
      <path id="Polygon_64" data-name="Polygon 64" d="M60,0,80,35,60,70H20L0,35,20,0Z" transform="translate(3 2102)" fill="#7ed9da" opacity="0.79"/>
      <path id="Polygon_144" data-name="Polygon 144" d="M60,0,80,35,60,70H20L0,35,20,0Z" transform="translate(188 2138)" fill="#7ed9da" opacity="0.22"/>
      <path id="Polygon_145" data-name="Polygon 145" d="M60,0,80,35,60,70H20L0,35,20,0Z" transform="translate(250 2102)" fill="#7ed9da" opacity="0.14"/>
      <path id="Path_110" data-name="Path 110" d="M42.328,69.97,20,70,0,35,20,0H42.295Z" transform="translate(312 2066)" fill="#7ed9da" opacity="0.51"/>
      <path id="Polygon_147" data-name="Polygon 147" d="M60,0,80,35,60,70H20L0,35,20,0Z" transform="translate(188 2066)" fill="#7ed9da" opacity="0.55"/>
      <path id="Polygon_148" data-name="Polygon 148" d="M60,0,80,35,60,70H20L0,35,20,0Z" transform="translate(250 2031)" fill="#7ed9da" opacity="0.85"/>
      <path id="Path_109" data-name="Path 109" d="M42.271,0l-.047,70.1L20,70,0,35,20,0Z" transform="translate(312 1995)" fill="#7ed9da" opacity="0.91"/>
      <path id="Polygon_151" data-name="Polygon 151" d="M60,0,80,35,60,70H20L0,35,20,0Z" transform="translate(250 1959)" fill="#7ed9da"/>
    </g>
    <path id="Path_76" data-name="Path 76" d="M7.025,0,9.367,4.833,7.025,9.665H2.342L0,4.833,2.342,0Z" transform="translate(277.232 3963.798)" fill="#7ed9da"/>
    <path id="Path_77" data-name="Path 77" d="M14.25,0,19,8.313l-4.75,8.313H4.75L0,8.312,4.75,0Z" transform="translate(301 1873.875)" fill="#7ed9da" opacity="0.06"/>
    <path id="Path_78" data-name="Path 78" d="M7.125,0,9.5,4.156,7.125,8.313H2.375L0,4.156,2.375,0Z" transform="translate(26.5 1816.188)" fill="#7ed9da"/>
    <path id="Path_79" data-name="Path 79" d="M7.125,0,9.5,4.156,7.125,8.313H2.375L0,4.156,2.375,0Z" transform="translate(347.5 1669.188)" fill="#7ed9da"/>
    <path id="Path_80" data-name="Path 80" d="M6.375,0,8.5,3.719,6.375,7.438H2.125L0,3.719,2.125,0Z" transform="translate(27.5 1265.063)" fill="#7ed9da"/>
    <path id="Path_81" data-name="Path 81" d="M6.375,0,8.5,3.719,6.375,7.438H2.125L0,3.719,2.125,0Z" transform="translate(264.5 1385.063)" fill="#7ed9da"/>
    <path id="Path_82" data-name="Path 82" d="M6.375,0,8.5,3.719,6.375,7.438H2.125L0,3.719,2.125,0Z" transform="translate(317.5 2435.063)" fill="#7ed9da"/>
    <path id="Path_83" data-name="Path 83" d="M6.375,0,8.5,3.719,6.375,7.438H2.125L0,3.719,2.125,0Z" transform="translate(108.5 2252.063)" fill="#7ed9da"/>
    <path id="Path_84" data-name="Path 84" d="M6.375,0,8.5,3.719,6.375,7.438H2.125L0,3.719,2.125,0Z" transform="translate(36 3123.063)" fill="#7ed9da"/>
    <path id="Path_85" data-name="Path 85" d="M6.375,0,8.5,3.719,6.375,7.438H2.125L0,3.719,2.125,0Z" transform="translate(322.5 3294.063)" fill="#7ed9da"/>
    <path id="Path_86" data-name="Path 86" d="M6.375,0,8.5,3.719,6.375,7.438H2.125L0,3.719,2.125,0Z" transform="translate(46.5 3888.063)" fill="#7ed9da"/>
    <path id="Path_87" data-name="Path 87" d="M6.375,0,8.5,3.719,6.375,7.438H2.125L0,3.719,2.125,0Z" transform="translate(183.5 4287.063)" fill="#7ed9da"/>
    <path id="Path_88" data-name="Path 88" d="M16.145,0l5.382,9.418-5.382,9.418H5.382L0,9.418,5.382,0Z" transform="translate(84.5 4301.664)" fill="#7ed9da"/>
    <path id="Path_89" data-name="Path 89" d="M16.145,0l5.382,9.418-5.382,9.418H5.382L0,9.418,5.382,0Z" transform="translate(155.5 4326.664)" fill="#7ed9da" opacity="0.26"/>
    <path id="Path_90" data-name="Path 90" d="M16.145,0l5.382,9.418-5.382,9.418H5.382L0,9.418,5.382,0Z" transform="translate(68.5 4249.664)" fill="#7ed9da" opacity="0.13"/>
    <path id="Path_91" data-name="Path 91" d="M16.145,0l5.382,9.418-5.382,9.418H5.382L0,9.418,5.382,0Z" transform="translate(338 4021.664)" fill="#7ed9da" opacity="0.11"/>
    <path id="Path_92" data-name="Path 92" d="M36.39,0,48.52,21.5,36.39,43H12.13L0,21.5,12.13,0Z" transform="translate(307.5 3635.917)" fill="#7ed9da" opacity="0.08"/>
    <path id="Path_93" data-name="Path 93" d="M34.994,0,46.658,20.413,34.994,40.826H11.665L0,20.413,11.665,0Z" transform="translate(12.5 3385.674)" fill="#a3a8bb" opacity="0.06"/>
    <path id="Path_94" data-name="Path 94" d="M16.145,0l5.382,9.418-5.382,9.418H5.382L0,9.418,5.382,0Z" transform="translate(316.473 2936.664)" fill="#7ed9da" opacity="0.14"/>
    <path id="Path_95" data-name="Path 95" d="M16.145,0l5.382,9.418-5.382,9.418H5.382L0,9.418,5.382,0Z" transform="translate(36 2845.664)" fill="#7ed9da" opacity="0.28"/>
    <path id="Path_96" data-name="Path 96" d="M40.666,0,54.221,23.722,40.666,47.443H13.555L0,23.722,13.555,0Z" transform="translate(11.5 2568.664)" fill="#7ed9da" opacity="0.18"/>
  </g>
</svg>
