<svg xmlns="http://www.w3.org/2000/svg" width="24.595" height="23.989" viewBox="0 0 24.595 23.989"><defs><style>.a{fill:#a3a8bb;}</style></defs><path class="a" d="M12.3,0A12.3,12.3,0,0,0,8.411,23.967c.614.114.813-.267.813-.591V21.086C5.8,21.83,5.09,19.635,5.09,19.635a3.257,3.257,0,0,0-1.366-1.8c-1.116-.763.085-.747.085-.747a2.582,2.582,0,0,1,1.885,1.268,2.618,2.618,0,0,0,3.579,1.022,2.609,2.609,0,0,1,.781-1.644c-2.731-.313-5.6-1.367-5.6-6.078a4.76,4.76,0,0,1,1.267-3.3A4.423,4.423,0,0,1,5.837,5.1S6.87,4.77,9.22,6.361a11.656,11.656,0,0,1,6.158,0C17.726,4.77,18.757,5.1,18.757,5.1a4.419,4.419,0,0,1,.121,3.255,4.747,4.747,0,0,1,1.266,3.3c0,4.723-2.877,5.763-5.615,6.068A2.939,2.939,0,0,1,15.372,20v3.375c0,.327.2.711.821.59A12.3,12.3,0,0,0,12.3,0Z"/></svg>