<svg xmlns="http://www.w3.org/2000/svg" width="150.352" height="135.082" viewBox="0 0 150.352 135.082"><defs><style>.a{fill:#7ed9da;}.b{fill:#fff;}</style></defs><path class="a" d="M248.937,100a2.937,2.937,0,1,0,2.937,2.937A2.938,2.938,0,0,0,248.937,100Zm0,0" transform="translate(-173.761 -70.634)"/><path class="a" d="M131.6,320h-40.1l4.024,6.09,36.071-.217a2.937,2.937,0,1,0,0-5.873Zm0,0" transform="translate(-8.08 -267.325)"/><path class="a" d="M82.937,265.873A2.937,2.937,0,1,0,80,262.937,2.938,2.938,0,0,0,82.937,265.873Zm0,0" transform="translate(-56.508 -183.649)"/><path class="b" d="M98.668,0C72.231,0,50.533,18.227,48.855,41.186,23.677,42.449,0,60.6,0,85.16a41.034,41.034,0,0,0,11.453,28.083,17.859,17.859,0,0,1-4.719,16.826,2.936,2.936,0,0,0,2.076,5.013,32.392,32.392,0,0,0,22.443-9.071,66.919,66.919,0,0,0,20.431,3.2c26.434,0,48.13-18.223,49.812-41.177A66.032,66.032,0,0,0,119.1,84.9a32.392,32.392,0,0,0,22.443,9.071,2.936,2.936,0,0,0,2.076-5.013A17.859,17.859,0,0,1,138.9,72.131a41.034,41.034,0,0,0,11.453-28.083C150.352,18.533,124.851,0,98.668,0ZM51.683,123.335a59.363,59.363,0,0,1-20.119-3.465,2.937,2.937,0,0,0-3.253.746,26.5,26.5,0,0,1-13.179,7.821,23.749,23.749,0,0,0,1.791-17.478,2.931,2.931,0,0,0-.718-1.241A35.289,35.289,0,0,1,5.873,85.16c0-20.694,20.978-38.175,45.81-38.175,23.449,0,44.048,16.306,44.048,38.175,0,21.05-19.76,38.175-44.048,38.175ZM134.146,68.6a2.944,2.944,0,0,0-.718,1.241,23.748,23.748,0,0,0,1.791,17.478A26.488,26.488,0,0,1,122.04,79.5a2.939,2.939,0,0,0-3.253-.746,57.849,57.849,0,0,1-17.3,3.392c-.858-11.1-15.868-29.292-15.868-29.292A48.029,48.029,0,0,0,76.6,46.985c-4.426-2.027-14.151-5.372-21.854-5.787C56.43,21.474,75.487,5.873,98.668,5.873c24.832,0,45.81,17.482,45.81,38.175A35.289,35.289,0,0,1,134.147,68.6Zm0,0" transform="translate(0 0)"/><path class="a" d="M159.937,260h-37a2.937,2.937,0,0,0,0,5.873h37a2.937,2.937,0,0,0,0-5.873Zm0,0" transform="translate(-84.761 -183.649)"/><path class="a" d="M131.683,320H82.937a2.937,2.937,0,1,0,0,5.873h48.747a2.937,2.937,0,1,0,0-5.873Zm0,0" transform="translate(-56.508 -226.03)"/><path class="a" d="M325.937,100h-37a2.937,2.937,0,0,0,0,5.873h37a2.937,2.937,0,0,0,0-5.873Zm0,0" transform="translate(-202.015 -70.634)"/></svg>